{"title":"Are.You.Here.2013.WEBRIP.x264.AC3-GLY","uid":10858823,"size":1060982108,"categoryP":"video","categoryS":"movies","magnet":"?xt=urn:btih:ecae8b1807bf3e0713d0783a550e7fb1aa3eee8a&amp;dn=Are.You.Here.2013.WEBRIP.x264.AC3-GLY&amp;tr=udp%3A%2F%2Ftracker.openbittorrent.com%3A80&amp;tr=udp%3A%2F%2Fopen.demonii.com%3A1337&amp;tr=udp%3A%2F%2Ftracker.coppersurfer.tk%3A6969&amp;tr=udp%3A%2F%2Fexodus.desync.com%3A6969","seeders":1,"leechers":0,"uploader":"ali1997a","files":4,"time":1408870790,"description":"SilverTorrent - Clean And Verified Torrents Download\n &lt;a href=&quot;\nhttp://i.imgur.com/ky6BGho.png&quot; rel=&quot;nofollow&quot; target=&quot;_NEW&quot;&gt;\nhttp://i.imgur.com/ky6BGho.png&lt;/a&gt;\n &lt;a href=&quot;\nhttp://i.imgur.com/eytUquM.png&quot; rel=&quot;nofollow&quot; target=&quot;_NEW&quot;&gt;\nhttp://i.imgur.com/eytUquM.png&lt;/a&gt;\n\nAre.You.Here.2013.WEBRIP.x264.AC3-GLY\n\niMDB:http://www.imdb.com/title/tt1545754/\n\nGeneral\nComplete name                            : Are.You.Here.2013.WEBRIP.x264.AC3-GLY.mp4\nFormat                                   : MPEG-4\nFormat profile                           : Base Media\nCodec ID                                 : isom\nFile size                                : 1 003 MiB\nDuration                                 : 1h 53mn\nOverall bit rate                         : 1 232 Kbps\nEncoded date                             : UTC 2014-08-23 23:02:10\nTagged date                              : UTC 2014-08-23 23:02:10\n\nVideo\nID                                       : 1\nFormat                                   : AVC\nFormat/Info                              : Advanced Video Codec\nFormat profile                           : &lt;a class=&quot;__cf_email__&quot; href=&quot;/cdn-cgi/l/email-protection&quot; data-cfemail=&quot;d79fbeb0bf979be2f9e6&quot;&gt;[email&amp;#160;protected]&lt;/a&gt;&lt;script cf-hash='f9e31' type=&quot;text/javascript&quot;&gt;\n/* &lt;![CDATA[ */!function(){try{var t=&quot;currentScript&quot;in document?document.currentScript:function(){for(var t=document.getElementsByTagName(&quot;script&quot;),e=t.length;e--;)if(t[e].getAttribute(&quot;cf-hash&quot;))return t[e]}();if(t&amp;&amp;t.previousSibling){var e,r,n,i,c=t.previousSibling,a=c.getAttribute(&quot;data-cfemail&quot;);if(a){for(e=&quot;&quot;,r=parseInt(a.substr(0,2),16),n=2;a.length-n;n+=2)i=parseInt(a.substr(n,2),16)^r,e+=String.fromCharCode(i);e=document.createTextNode(e),c.parentNode.replaceChild(e,c)}}}catch(u){}}();/* ]]&gt; */&lt;/script&gt;\nFormat settings, CABAC                   : Yes\nFormat settings, ReFrames                : 4 frames\nCodec ID                                 : avc1\nCodec ID/Info                            : Advanced Video Coding\nDuration                                 : 1h 53mn\nBit rate                                 : 845 Kbps\nMaximum bit rate                         : 4 789 Kbps\nWidth                                    : 720 pixels\nHeight                                   : 400 pixels\nDisplay aspect ratio                     : 16:9\nFrame rate mode                          : Constant\nFrame rate                               : 23.976 fps\nColor space                              : YUV\nChroma subsampling                       : 4:2:0\nBit depth                                : 8 bits\nScan type                                : Progressive\nBits/(Pixel*Frame)                       : 0.122\nStream size                              : 688 MiB (69%)\nWriting library                          : x264 core 142 r2431 ac76440\nEncoded date                             : UTC 2014-08-23 23:02:10\nTagged date                              : UTC 2014-08-23 23:02:49\n\nAudio\nID                                       : 2\nFormat                                   : AC-3\nFormat/Info                              : Audio Coding 3\nMode extension                           : CM (complete main)\nFormat settings, Endianness              : Big\nCodec ID                                 : ac-3\nDuration                                 : 1h 53mn\nBit rate mode                            : Constant\nBit rate                                 : 384 Kbps\nChannel(s)                               : 6 channels\nChannel positions                        : Front: L C R, Side: L R, LFE\nSampling rate                            : 48.0 KHz\nBit depth                                : 16 bits\nCompression mode                         : Lossy\nStream size                              : 313 MiB (31%)\nEncoded date                             : UTC 2014-08-23 23:02:37\nTagged date                              : UTC 2014-08-23 23:02:49 \n &lt;a href=&quot;\nhttp://i.imgur.com/eO5unZx.jpg&quot; rel=&quot;nofollow&quot; target=&quot;_NEW&quot;&gt;\nhttp://i.imgur.com/eO5unZx.jpg&lt;/a&gt;\n &lt;a href=&quot;\nhttp://i.imgur.com/MRrkqL9.jpg&quot; rel=&quot;nofollow&quot; target=&quot;_NEW&quot;&gt;\nhttp://i.imgur.com/MRrkqL9.jpg&lt;/a&gt;\n &lt;a href=&quot;\nhttp://i.imgur.com/mrB0xDS.jpg&quot; rel=&quot;nofollow&quot; target=&quot;_NEW&quot;&gt;\nhttp://i.imgur.com/mrB0xDS.jpg&lt;/a&gt;\n &lt;a href=&quot;\nhttp://i.imgur.com/5fKN9jX.jpg&quot; rel=&quot;nofollow&quot; target=&quot;_NEW&quot;&gt;\nhttp://i.imgur.com/5fKN9jX.jpg&lt;/a&gt;","torrent":{"xt":"urn:btih:ecae8b1807bf3e0713d0783a550e7fb1aa3eee8a","amp;dn":"Are.You.Here.2013.WEBRIP.x264.AC3-GLY","amp;tr":["udp%3A%2F%2Ftracker.openbittorrent.com%3A80","udp%3A%2F%2Fopen.demonii.com%3A1337","udp%3A%2F%2Ftracker.coppersurfer.tk%3A6969","udp%3A%2F%2Fexodus.desync.com%3A6969"],"infoHash":"ecae8b1807bf3e0713d0783a550e7fb1aa3eee8a","infoHashBuffer":{"type":"Buffer","data":[236,174,139,24,7,191,62,7,19,208,120,58,85,14,127,177,170,62,238,138]},"announce":[],"urlList":[]}}